<?xml version="1.0" encoding="iso-8859-1"?>
<!-- Generator: Adobe Illustrator 19.0.0, SVG Export Plug-In . SVG Version: 6.00 Build 0)  -->
<svg version="1.1" id="Capa_1" xmlns="http://www.w3.org/2000/svg" xmlns:xlink="http://www.w3.org/1999/xlink" x="0px" y="0px"
	 viewBox="0 0 512 512" style="enable-background:new 0 0 512 512;" xml:space="preserve">
<path style="fill:#B7E0F6;" d="M498.8,347.8c-8.101,8.101-19.501,13.2-31.8,13.2H45c-12.299,0-23.699-5.099-31.8-13.2l1.8-35.4
	l134.2-133.2L181,181l14.399-14.399h125.4L331,181h39.3l124.3,123.3L498.8,347.8z"/>
<path style="fill:#A4D9F5;" d="M498.8,347.8c-8.101,8.101-19.501,13.2-31.8,13.2H256V166.601h64.799L331,181h39.3l124.3,123.3
	L498.8,347.8z"/>
<path style="fill:#81C8EE;" d="M498.805,13.195H467L335.722,144.472L331,181l167.805,166.805C506.954,339.657,512,328.407,512,316
	V45C512,32.593,506.954,21.343,498.805,13.195z"/>
<path style="fill:#A4D9F5;" d="M179.09,147.754L44.531,13.195H13.195C5.046,21.343,0,32.593,0,45v271
	c0,12.407,5.046,23.657,13.195,31.805L181,181L179.09,147.754z"/>
<path style="fill:#CAE8F9;" d="M498.8,13.2L298.299,213.701C286.601,225.399,271.3,231.4,256,231.4s-30.601-6-42.299-17.699
	L13.2,13.2C21.301,5.099,32.701,0,45,0h422C479.299,0,490.699,5.099,498.8,13.2z"/>
<path style="fill:#B7E0F6;" d="M298.299,213.701C286.601,225.399,271.3,231.4,256,231.4V0h211c12.299,0,23.699,5.099,31.8,13.2
	L298.299,213.701z"/>
<path style="fill:#32D736;" d="M256,272c-66.301,0-120,53.699-120,120s53.699,120,120,120s120-53.699,120-120S322.301,272,256,272z"
	/>
<path style="fill:#10BB67;" d="M376,392c0,66.301-53.699,120-120,120V272C322.301,272,376,325.699,376,392z"/>
<path style="fill:#CAE8F9;" d="M311.499,372.499L256,428l-4.501,4.499c-5.7,6-15.298,6-20.999,0l-30-30c-6-5.7-6-15.298,0-20.999
	c5.7-6,15.298-6,20.999,0L241,400.699l15-15l34.501-34.199c5.7-6,15.298-6,20.999,0C317.5,357.201,317.5,366.799,311.499,372.499z"
	/>
<path style="fill:#B7E0F6;" d="M311.499,372.499L256,428v-42.301l34.501-34.199c5.7-6,15.298-6,20.999,0
	C317.5,357.201,317.5,366.799,311.499,372.499z"/>
<g>
</g>
<g>
</g>
<g>
</g>
<g>
</g>
<g>
</g>
<g>
</g>
<g>
</g>
<g>
</g>
<g>
</g>
<g>
</g>
<g>
</g>
<g>
</g>
<g>
</g>
<g>
</g>
<g>
</g>
</svg>
